<svg width="160" height="241" viewBox="0 0 160 241" fill="none" xmlns="http://www.w3.org/2000/svg">
<path opacity="0.2" d="M104.4 231.6C131.3 218.4 105.4 213.7 90.3 205.3C69.5 193.7 62.8 189.6 47.3 199.2C30.2 209.8 47.5 217.1 63.4 224.5C81.4 233 88.4 239.5 104.4 231.6Z" fill="black"/>
<path d="M55.6 78.1C55.5 84.7 53.6 92.6 51.9 98.1C50.2 103.6 51.2 109.4 51.8 110.6C52.4 111.8 53.8 115.9 54.1 116.8C54.4 117.7 55.9 117.7 56.1 115.9C56.4 114.1 55.7 110.4 56.3 109.3C57 108.2 58.9 109.2 59.3 106.7C59.7 104.2 58.6 100.2 59.2 98.3C59.7 96.4 62.4 92 62.3 89C62.2 86 62.4 78.7 62.4 78.7L55.6 78.1ZM56.9 194.9C54.7 197.2 51.8 200.3 48.8 201.9C45.8 203.5 43 205.7 43.5 207.9C44 210.1 47.4 212.5 53.6 210.9C57.3 210 58.9 206.5 61.5 205.8C64.1 205.1 68 203.5 68.3 202.2C68.6 200.9 68.6 197 68.6 197L56.9 194.9Z" fill="#1B1B1B"/>
<path opacity="0.5" d="M68.2 202.2C68.3 201.8 68.3 201.3 68.4 200.7C67.1 201.8 64.1 203.2 61.3 204C57.9 204.9 55.5 208.8 51.9 209.9C48.7 210.8 43.9 209.4 43.5 206.6C43.3 207.1 43.3 207.5 43.4 208C43.9 210.2 47.3 212.6 53.5 211C57.2 210.1 58.8 206.6 61.4 205.9C63.9 205.1 67.9 203.6 68.2 202.2Z" fill="black"/>
<path d="M57.7 102.3C57.7 102.3 54.7 111.8 53.7 125.6C52.7 139.4 53.6 160.7 53.6 171.6C53.6 182.5 52.9 191.7 52.2 193.8C51.5 195.9 50.9 199.8 51.8 200.6C53.1 201.7 59.7 203.3 62.6 203.8C68.7 204.8 71 200 71.6 198.1C72.2 196.2 74.3 174.9 74 167.5C73.7 160.1 74.8 156.3 75.8 148.6C76.7 141.8 79.1 121.4 79.1 121.4L79.4 107.5L57.7 102.3Z" fill="#FF833A"/>
<path opacity="0.2" d="M57.7 102.3C57.7 102.3 54.7 111.8 53.7 125.6C52.7 139.4 53.6 160.7 53.6 171.6C53.6 182.5 52.9 191.7 52.2 193.8C51.5 195.9 50.9 199.8 51.8 200.6C53.1 201.7 59.7 203.3 62.6 203.8C68.7 204.8 71 200 71.6 198.1C72.2 196.2 74.3 174.9 74 167.5C73.7 160.1 74.8 156.3 75.8 148.6C76.7 141.8 79.1 121.4 79.1 121.4L79.4 107.5L57.7 102.3Z" fill="#FF833A"/>
<path d="M53.5 180.8C53.5 180.8 56.8 183.5 60.9 183.7C64.9 184 73.7 181 73.7 181L73.5 183.3C73.5 183.3 66.3 185.8 61.3 185.7C56.3 185.6 53.4 182.7 53.4 182.7L53.5 180.8ZM53 186.6C53 186.6 56.3 189.3 60.4 189.5C64.4 189.8 73.2 186.8 73.2 186.8L73 189.1C73 189.1 65.8 191.6 60.8 191.5C55.8 191.4 52.9 188.5 52.9 188.5L53 186.6Z" fill="#CFCFCF"/>
<path d="M56.9 36.7C56.9 36.7 62 39.8 71.7 41.2C81.3 42.5 84.1 42.3 84.1 42.3C84.1 42.3 78.6 36.7 71 35.5C63.4 34.3 56.9 36.7 56.9 36.7Z" fill="#262626"/>
<path d="M95.4 214.5C94.4 217 92.7 220.1 90.1 222.6C87.4 225.2 85.4 228.9 86.9 230.7C88.4 232.5 95 233.2 98.3 231.3C101.6 229.4 108.3 223.6 108.8 222.5C109.3 221.3 108.7 216.3 108.7 216.3L95.4 214.5Z" fill="#1B1B1B"/>
<path opacity="0.5" d="M108.7 222.5C108.9 222.1 108.9 221.3 108.9 220.3C107.8 221.8 105.3 223.9 103.5 225.7C101.3 227.8 98 230.7 93.9 231.2C90.7 231.6 87.6 231 86.3 228.7C86.2 229.5 86.3 230.2 86.8 230.8C88.3 232.7 94.9 233.3 98.2 231.4C101.5 229.5 108.2 223.7 108.7 222.5Z" fill="black"/>
<path d="M66.7 105.5C66.6 106.9 67 125.5 68.2 129C69.4 132.5 73.3 134.3 76.1 142.3C78.9 150.3 78.8 157.3 81.4 165.8C84.1 174.2 88.1 201 89.5 208.6C90.5 214.2 91.5 219.9 92.3 220.4C93.9 221.4 96.4 221.8 98.7 222.1C103.3 222.6 106.8 222.5 108.9 221.2C111.1 219.9 111.5 216.7 110.7 211.7C109.9 206.7 107.4 188.3 105.8 179.3C104.5 172.1 99.1 146.4 98.8 137.9C98.5 129.4 99.3 120.7 96 113.6C92.7 106.5 89.6 104.2 89.6 104.2L66.7 105.5Z" fill="#FF833A"/>
<path d="M88.1 201.2L88.4 203.8C88.4 203.8 94.6 205.6 99.3 205C104 204.4 109.2 201.8 109.2 201.8L108.9 199.5C108.9 199.5 101.7 202.5 98.5 202.6C93.1 202.7 88.1 201.2 88.1 201.2ZM89.1 207.6L89.4 210.2C89.4 210.2 95.6 212 100.3 211.4C105 210.8 110.2 208.2 110.2 208.2L109.9 205.9C109.9 205.9 102.7 208.9 99.5 209C94.1 209.2 89.1 207.6 89.1 207.6Z" fill="#CFCFCF"/>
<path d="M117.6 80.1L116.4 78.9V78.8C115.7 77.8 110.5 70.4 108.6 67C106.7 63.6 103.6 56.9 99.2 54.8C94.9 52.6 89.5 52.2 87.9 51.5C86.3 50.8 88.4 48.2 87.8 47.2C87.1 46.3 77.7 42 71.1 44.3C66.5 45.9 60.1 46.3 58.2 51.8C56.3 57.4 53.2 66.5 53.9 72.3C54.1 73.7 53.2 85.4 52.6 87.5C51.9 89.9 49.9 94.4 50.2 95.4C50.5 96.4 51.6 97.4 51.6 97.4L51.3 100C51.3 100 53.9 100.1 55.9 100.2C56.2 100.2 52.9 111.8 56 113.2C62.1 115.9 76.1 113.7 83.1 112.8C89.6 111.9 90.6 105.5 90.6 105.5L88.2 107.5C88.2 107.5 90.2 110.5 91.3 112.4C92.3 114.3 93 116.1 93 116.1L96.5 114.3C96.5 114.3 96.6 116.1 98.9 115.6C101.2 115.1 122.3 102.3 122.9 95.1C123.5 88 121.1 83.7 117.6 80.1ZM97.3 94.8C95.9 96.4 95.4 97.4 94.4 98.7C94.4 98.6 93.9 96.6 94.7 92.2C95.5 87.7 95.3 81.1 95.3 81.1C95.3 81.1 96.7 83.9 98.2 86.1C99.7 88.2 101.5 89.7 101.5 90C101.8 90.8 99.4 92.4 97.3 94.8Z" fill="#FF833A"/>
<path d="M66.2 62.3L69 57.7C69 57.7 72.3 56.8 75.2 54.2C78.1 51.6 83.8 48.8 83.8 48.8C83.8 48.8 81.3 47.1 81 44.2C80.7 41.3 84.1 37.1 82.8 30.3C81.6 23.6 75.7 18.8 66.4 22.9C57.1 27 57.9 42.1 59.9 48.7C61.8 55.3 67.2 53 67.2 53C67.2 53 66.6 55.8 66.3 57.6C66 59.5 66.2 62.3 66.2 62.3Z" fill="#FBD7C7"/>
<path d="M95.4 81.1L96.5 83.5C96.5 83.5 101.4 78.9 103.7 76.1C106.9 72.2 111.2 70.9 111.2 70.9L109.5 68.3C109.5 68.3 104.1 71.1 101.9 73.8C98.4 78 95.4 81.1 95.4 81.1ZM99 87.1L100.6 89.3C100.6 89.3 105.3 84.9 107.6 82.1C110.8 78.2 115.1 76.9 115.1 76.9L113.4 74.3C113.4 74.3 108 77.1 105.8 79.8C102.4 83.9 99 87.1 99 87.1ZM95.4 81.1L95.6 83.8C95.6 83.8 87.1 83.1 81.2 82.5C74.6 81.8 66 81.6 66 81.6L66.3 78.9C66.3 78.9 73.8 79.1 80.7 79.6C87.6 80.1 95.4 81.1 95.4 81.1ZM95.2 88.4L95 90.9C95 90.9 86.6 90.2 80.8 89.6C74.3 89 65.9 88.8 65.9 88.8L66 86.1C66 86.1 73.5 86.3 80.4 86.8C87.4 87.4 95.2 88.4 95.2 88.4ZM54.7 77.2L55 80L62.6 81.2L62.5 78.5L54.7 77.2ZM55.6 84.4L55.9 87.2L62.5 88.6L62.6 85.6L55.6 84.4Z" fill="#CFCFCF"/>
<path d="M88.8 106C88.5 106.3 88.2 106.5 88 106.5C86 107.2 85 107.5 83.7 107.1C82.4 106.7 78.5 105.6 76.8 105.3C75.2 104.9 72.4 104.8 73 106.6C73.6 108.3 76.6 109.3 77.5 109.6C78.5 109.9 79 110.5 78 111.8C77 113 68.9 116.4 69.6 119C70.7 123.2 74.1 125.2 80.7 123.5C83.4 122.8 90.6 118.3 93.9 115.8C90.3 110.9 89.7 107.2 88.8 106Z" fill="#1B1B1B"/>
<path d="M57.5 34.3C58.1 36.6 66.7 35.5 73.7 37.4C81.9 39.6 83.7 41.4 84.4 39.5C87.4 31.3 82.6 19.1 71.7 19.1C61.6 19.1 55.7 26.6 57.5 34.3Z" fill="#FF3D00"/>
<path opacity="0.5" d="M84.4 39.4C84.4 39.4 65.2 22.5 58.1 24.9C51 27.3 55.6 33.9 58.2 33.3C63.3 32 84.4 39.4 84.4 39.4Z" fill="#999999"/>
<path d="M51.4 32C59.6 29.8 75.2 33.9 80.4 36.6C85.8 39.4 89.6 41.6 89.6 41.6L84.1 42.4C84.1 42.4 79 40.6 72 38.6C65 36.6 56.9 36.8 56.9 36.8C56.9 36.8 47.4 33.1 51.4 32Z" fill="#262626"/>
</svg>
