<svg width="160" height="241" viewBox="0 0 80 241" fill="none" xmlns="http://www.w3.org/2000/svg">
<path opacity="0.2" d="M64.8 232.5C84.2 223.1 66.6 210.6 47.4 207.2C39 205.7 33.9 192.3 12.8 205.6C-4.1 216.4 12.8 223.5 21.4 227.6C33.4 233.1 46.7 241.2 64.8 232.5Z" fill="black"/>
<path d="M23.3 94C23.3 94 21.3 103.7 20.2 106.8C19 109.8 18.2 114.5 18.7 117.9C19.2 121.3 20.8 128.3 21.4 129.4C22.1 130.5 24.6 133 25.4 133.4C26.2 133.8 27.8 118.5 27.8 118.5L23.3 94Z" fill="#B3E5FC"/>
<path d="M19 109.2L23.1 111.4L24.7 99.4L23.8 84.5C23.8 84.5 21.5 90.1 20.6 96C19.7 101.8 19.9 105.1 19.9 105.1L19 109.2Z" fill="#E5E5E5"/>
<path d="M27.2 202.1C27.2 202.1 29.4 205 33.4 204.4C37.4 203.9 41.3 202.3 41.3 202.3C41.3 202.3 42.4 208.6 40.6 210.2C38.8 211.8 32.1 212.1 29.2 213.5C26.3 214.9 22.3 217.7 18 218C8.79999 218.7 10.2 211.2 14.4 209.3C17.7 207.9 21.1 206.3 23.2 205.1C25.3 204 27.2 202.1 27.2 202.1Z" fill="#825012"/>
<path opacity="0.4" d="M41.6 207.9C38.9 209.2 33.3 210.3 30.5 210.9C27.1 211.5 20.8 216.6 16.4 216.7C13.3 216.8 11.5 215.4 11.5 212.7C10.5 215.4 11.9 218.6 18.1 218.2C22.4 217.9 26.4 215.1 29.3 213.7C32.2 212.3 38.9 212.1 40.7 210.4C41.2 209.8 41.4 208.9 41.6 207.9Z" fill="black"/>
<path d="M53.9 215.1C53.9 215.1 56.3 217.2 59.6 216.8C62.9 216.4 67.5 213 67.8 214.7C68.1 216.4 69.8 219.9 68.4 221C67 222.1 59.3 226.7 58 228.1C56.6 229.5 52.4 232.9 48.1 233.4C43.3 233.9 38.9 232.1 38.9 228.6C38.9 224.5 45.5 221.7 48.3 219.8C51 217.7 53.9 215.1 53.9 215.1Z" fill="#825012"/>
<path opacity="0.4" d="M57.9 228C59.3 226.6 67 222 68.3 220.9C69 220.4 68.9 219.3 68.7 218.2C66.7 219.9 62.8 221.9 59.2 224.1C54 227.4 53 231.5 45.8 231.8C40.8 232 38.9 229.6 38.9 227.2C38.8 227.6 38.7 228 38.7 228.4C38.7 231.9 43.1 233.8 47.9 233.2C52.3 232.8 56.5 229.4 57.9 228Z" fill="black"/>
<path d="M22.9 109.8C21.9 113.7 22.3 125.1 23.1 131.2C23.9 137.2 24.8 150.3 26.3 162.9C27.3 171.4 25.6 194.8 24.4 200.3C23.7 204 21 206.5 25.4 208C30.2 209.7 35.4 210 40.5 208.5C42.7 207.9 42.2 205.7 42.3 202.2C42.4 197.5 43.8 186.4 44.2 182.3C44.6 178.2 44.9 172.9 45.1 168.3C45.4 163.7 46.8 147.6 47.3 143.9C47.8 140.2 47.8 111.3 47.8 111.3L22.9 109.8Z" fill="#007AC1"/>
<path opacity="0.2" d="M22.9 109.8C21.9 113.7 22.3 125.1 23.1 131.2C23.9 137.2 24.8 150.3 26.3 162.9C27.3 171.4 25.6 194.8 24.4 200.3C23.7 204 21 206.5 25.4 208C30.2 209.7 35.4 210 40.5 208.5C42.7 207.9 42.2 205.7 42.3 202.2C42.4 197.5 43.8 186.4 44.2 182.3C44.6 178.2 44.9 172.9 45.1 168.3C45.4 163.7 46.8 147.6 47.3 143.9C47.8 140.2 47.8 111.3 47.8 111.3L22.9 109.8Z" fill="black"/>
<path d="M30.4 110C30.4 110 28.9 118.2 32.6 122.8C36.3 127.4 41.2 129.5 41.1 132.7C41 136 44 154 46.1 160.1C48.2 166.2 48.7 174.5 49.4 180.3C50.1 186.1 50.9 202.2 50.6 206.5C50.3 212.1 48.8 217.3 48.4 219.3C48.1 220.7 53.4 222.8 56.6 223C62 223.3 64.9 221.5 67 220C68.9 218.7 68.8 218.5 68.7 215.4C68.6 212.3 68 183.6 67.5 176.4C67 169.2 69.9 137.6 69.7 131.2C69.2 119.6 65.6 109.1 65.6 109.1L30.4 110Z" fill="#007AC1"/>
<path d="M49.1 46.6C40.7 46.1 33.8 44.2 30.9 49C28 53.8 28.2 56.9 26.8 59.2C25.4 61.5 22.5 68 22.6 72.6C22.7 77.2 24 79.9 23.4 82.5C22.7 85.1 21.9 94.2 21.8 97.7C21.6 104.5 21.2 110.8 22.3 112.5C24 115.1 38.9 116.6 49.5 115.3C61.5 113.9 69.4 110.2 69.4 109.1C69.4 108 64.7 95.7 63.9 94.1C57.3 80.3 74 75.7 73.9 75C73.8 73 74.6 66.4 74.1 63.5C73.6 60.6 70 55.9 67.4 53.5C64.8 51 60.6 47 57.7 46.2C55 45.4 49.1 46.6 49.1 46.6Z" fill="#EEEEEE"/>
<path d="M58.1 78.7C58.1 78.7 63.3 79.1 67.2 77.9C71.1 76.7 73.2 75.5 73.2 75.5C73.2 75.5 74.5 88.4 75.5 91.1C76.5 93.8 76.4 98.4 75 103.7C73.6 109 70.9 127.3 71 130.1C71.1 132.9 70.8 136.4 70.3 138.4C69.8 140.4 68.4 144.2 65.8 145.7C62.8 147.4 59.4 147.1 58.2 146.1C56.3 144.6 60.1 138.8 59.3 138C58.5 137.2 56.9 137.4 56.4 138.7C55.9 140 54 141.4 53 140.7C52 140 53.2 138.9 53.8 137.8C54.4 136.6 55.8 133.9 57.2 133C58.6 132.1 61.2 131.6 61.8 129.2C62.4 126.7 61.8 116.2 62.4 110.7C63 105.2 65.3 100.2 65.2 99.1C65.1 98 61.6 89.9 60 85C58.5 80.6 58.1 78.7 58.1 78.7ZM35.5 25C32.7 29.3 34.2 39.8 34.6 42.5C35 45.1 35.7 47.9 37.6 48.7C39.5 49.4 41.2 50.2 41.2 51.4C41.2 52.6 38.2 55.3 39.5 56.1C40.8 56.9 48 57 54 54.6C59.6 52.3 61.2 49.6 60.4 48.6C59.7 47.7 56.2 45.7 56.2 42.7C56.3 39.6 59.3 34.9 59.4 30.3C59.5 21.2 46.1 15.7 38.3 22C37.3 22.7 36.3 23.7 35.5 25Z" fill="#FBD7C7"/>
<path d="M49.1 20.6C54.7 23.7 45.3 27.4 47.5 29.6C49.4 31.4 49.4 36.9 50.4 38.6C51.6 40.7 52.8 36.3 53.9 35.2C54.9 34.2 56.7 34 57.2 35.5C57.7 37 56.8 39.2 56.7 39.8C58.3 39.5 60.4 34.1 60 28.4C59.6 21.6 49.9 15.2 39.4 21.1C37.3 22.3 36.6 23.6 37.7 22.7C39.7 21.1 45.6 18.6 49.1 20.6Z" fill="#999999"/>
<path opacity="0.2" d="M57.6 78.7C57.6 78.7 60.4 92.6 60.3 96.6C60.2 100.6 56 114.3 56 114.3L65.9 111.9L68.8 96.1L57.6 78.7Z" fill="black"/>
<path d="M61.2 121.4C61.4 123 61.8 126.7 61.8 126.7L61 130C61 130 66.2 129.9 67.9 130.8C69.5 131.7 71.3 132.9 71.3 132.9V127.5C71.3 127.5 75.4 113.5 76.5 108.6C77.6 103.8 76.8 94.9 76.6 93.3C76.3 91.7 74.4 73.7 74.4 70.5C74.4 67.3 74 64 74 64L54.5 70.5C54.5 70.5 61.7 89 62.4 93.5C63.1 98.1 60.3 112.7 61.2 121.4Z" fill="#EEEEEE"/>
<path d="M56.0905 39.4501C56.0905 39.4501 52 42.5 47 42C45 42 40.5905 41.9501 40.5905 41.9501L34.5 40.5C34.5 43 34.5 46 35.5 47L37.0905 48.4501L39.5905 49.4501C39.5905 49.4501 40 49.5 41.8015 49.9429C51.7649 47.6381 53.925 44.4491 53.4675 45.1136C56.5905 41.9501 56.9999 38.5 57 36.5C56.9999 38 56.0905 39.4501 56.0905 39.4501Z" fill="white"/>
<path d="M61.5 130C61.5 130 61.1259 130.345 61 130.5C59.5 132 59.629 131.241 58.5 132C57 132.5 54.5 136 53.5 137.5C52.6511 138.773 51.2235 140.334 53 141C54.6987 141.604 55.7282 139.614 56.5277 139.103C57.3902 138.515 58.1712 138.504 58.5521 140.099C59 141.5 55 148 61 147C65.3615 146.273 65 147.5 68 143.5C70.5 141 70.8661 136.638 71 132.5C67 129 62.999 130.056 61.5 130Z" fill="#B3E5FC"/>
</svg>
