<svg width="160" height="241" viewBox="0 0 160 241" fill="none" xmlns="http://www.w3.org/2000/svg">
<path opacity="0.2" d="M99.9 231.9C126.8 218.7 100.9 214 85.8 205.6C65 194 58.3 189.9 42.8 199.5C25.7 210.1 43 217.4 58.9 224.8C77 233.2 83.9 239.7 99.9 231.9Z" fill="black"/>
<path d="M51.8 80.1C51.7 86.1 50.4 92.6 48.9 97.6C47.4 102.6 47.9 108.3 48.4 109.3C48.9 110.3 50.2 114 50.4 114.9C50.7 115.8 52 115.8 52.2 114.1C52.5 112.5 51.8 109.1 52.4 108.1C53 107.1 54.7 108 55.1 105.7C55.5 103.4 52.3 99.9 52.7 98.2C53.2 96.5 57.8 92.6 57.7 89.8C57.6 87.1 57.8 80.6 57.8 80.6L51.8 80.1Z" fill="#FBD7C7"/>
<path d="M52.9 195.2C50.7 197.5 47.8 200.6 44.8 202.2C41.8 203.8 39 206 39.5 208.2C40 210.4 43.4 212.8 49.6 211.2C53.3 210.3 54.9 206.8 57.5 206.1C60.1 205.4 64 203.8 64.3 202.5C64.6 201.1 64.6 197.3 64.6 197.3L52.9 195.2ZM91.4 214.7C90.4 217.2 88.7 220.3 86.1 222.8C83.4 225.4 81.4 229.1 82.9 230.9C84.4 232.8 91 233.4 94.3 231.5C97.5 229.6 104.3 223.8 104.8 222.7C105.3 221.5 104.7 216.5 104.7 216.5L91.4 214.7Z" fill="#262626"/>
<path opacity="0.5" d="M64.2 202.4C64.3 202 64.3 201.5 64.4 200.9C63.1 202 60.1 203.4 57.3 204.2C53.9 205.1 51.5 209 47.9 210.1C44.7 211 39.9 209.6 39.5 206.8C39.3 207.3 39.3 207.7 39.4 208.2C39.9 210.4 43.3 212.8 49.5 211.2C53.2 210.3 54.8 206.8 57.4 206.1C60 205.4 63.9 203.8 64.2 202.4ZM104.7 222.7C104.9 222.3 104.9 221.5 104.9 220.5C103.8 222 101.3 224.1 99.5 225.9C97.3 228 94 230.9 89.9 231.4C86.7 231.8 83.6 231.2 82.3 228.9C82.2 229.7 82.3 230.4 82.8 231C84.3 232.9 90.9 233.5 94.2 231.6C97.5 229.7 104.3 223.9 104.7 222.7Z" fill="black"/>
<path d="M53.8 102.6C53.8 102.6 50.8 112.1 49.8 125.9C48.8 139.7 50.4 161.6 50.4 172.5C50.4 183.4 51.5 191.8 50.8 193.9C50.1 196 49.6 197.2 50.8 197.2C52 197.2 56.7 199.4 59.5 199.9C62.3 200.5 64.6 200.9 65.2 199C65.8 197.1 68.2 175.2 67.9 167.8C67.6 160.4 68.1 155 69.9 148.5C71.7 142 75.2 121.6 75.2 121.6L75.5 107.7L53.8 102.6Z" fill="#1B3727"/>
<path opacity="0.2" d="M53.8 102.6C53.8 102.6 50.8 112.1 49.8 125.9C48.8 139.7 50.4 161.6 50.4 172.5C50.4 183.4 51.5 191.8 50.8 193.9C50.1 196 49.6 197.2 50.8 197.2C52 197.2 56.7 199.4 59.5 199.9C62.3 200.5 64.6 200.9 65.2 199C65.8 197.1 68.2 175.2 67.9 167.8C67.6 160.4 68.1 155 69.9 148.5C71.7 142 75.2 121.6 75.2 121.6L75.5 107.7L53.8 102.6Z" fill="black"/>
<path d="M62.7 105.7C62.6 107.1 63 125.7 64.2 129.2C65.4 132.6 69.3 134.5 72.1 142.5C74.8 150.5 75.6 157.8 78.3 166.3C81 174.7 88.4 202.5 88.9 208.2C89.4 213.9 88.4 216.9 89.3 217.5C90.9 218.5 92.9 219.3 95.1 219.9C97.4 220.6 102.6 221 104.7 219.8C106.9 218.5 107.3 217.5 106.5 212.5C105.7 207.5 103.3 187.3 101.3 180.2C99.3 173.1 95.1 146.6 94.8 138.1C94.5 129.6 95.3 120.9 92 113.8C88.7 106.7 85.6 104.4 85.6 104.4L62.7 105.7Z" fill="#1B3727"/>
<path d="M53.2 100.5L53.1 104.2C53.1 104.2 54.2 110.2 67 111.3C79.8 112.5 87.5 106.5 87.5 106.5L86.8 103.4C86.8 103.4 75.7 108.7 65.1 107.1C54.5 105.4 53.2 100.5 53.2 100.5Z" fill="#262626"/>
<path d="M67.3 45.3C62.7 46.9 56.2 46.6 54.3 52.2C52.4 57.8 49.3 66.9 50 72.7C50.7 78.5 52.4 84.8 52.6 88C52.7 91.2 52 96.2 52.7 98.7C53.4 101.2 53.5 103.8 57.6 105.6C63.7 108.3 69.3 109 76.3 108C84.4 106.9 87 104.7 87.6 102.6C88.3 100.5 88.8 97 89.6 92.6C90.4 88.1 91.9 82.1 91.9 82.1C91.9 82.1 95 86.7 96.4 87.3C97.9 88 99.6 87.9 99.6 87.9C99.6 87.9 101.2 89.3 101.9 89.3C102.6 89.3 106.4 88.3 109.1 86.6C111.8 85 113 83.8 113 83.4C113 83 111.9 81.1 111.9 81.1C111.9 81.1 113.1 80 112.4 78.9C111.7 77.9 105.9 70.5 104 67.1C102.1 63.7 99.2 57.1 94.9 54.9C90.6 52.7 85.5 53 84 52.3C82.4 51.6 84.3 49 83.6 48C82.9 47.3 73.8 42.9 67.3 45.3Z" fill="#1B3727"/>
<path d="M69.3 107.8L78.3 108L78.9 125.3L69.5 125.2L69.3 107.8Z" fill="#262626"/>
<path d="M61.6 66.9L65.5 59C65.5 59 68.8 58.1 71.7 55.5C74.6 52.9 80.3 50.1 80.3 50.1C80.3 50.1 77.4 47.4 77 44.5C76.7 41.6 80.1 37.4 78.8 30.6C77.6 23.9 71.7 19.1 62.4 23.2C53.1 27.3 54 42.4 56 49C57.9 55.6 63.3 53.3 63.3 53.3C63.3 53.3 62.2 58.5 62.1 60.3C62 62.1 61.6 66.9 61.6 66.9ZM112.9 83.7C112.9 83.7 115.9 87.7 116.8 90.5C117.7 93.3 113.8 99.2 107 103.8C100.3 108.4 91.6 112.7 89.7 114.1C87.8 115.5 81.2 120.8 78.5 121.5C73.1 122.9 70.3 120.9 69.7 118.8C69.1 116.7 76.1 113.5 76.9 112.5C77.7 111.5 76.9 109.7 76.1 109.5C75.3 109.2 73.3 108.9 72.8 107.5C72.3 106.1 74 106.6 75.4 106.9C76.8 107.2 79.9 108.1 80.9 108.4C81.9 108.7 82.5 109.9 84.1 109.3C85.7 108.7 92.9 100.2 96.9 96.9C100.6 93.8 104.4 92.8 104.4 92.8L102.4 89.5C102.4 89.5 105 89 108.5 87.1C110.7 85.7 112.9 83.7 112.9 83.7Z" fill="#FBD7C7"/>
<path d="M55.7 30.5C55.6 31.7 56.6 33 59.6 33.7C63.4 34.6 67.5 31.6 70.6 33.5C72.3 34.6 72.9 40.7 73.9 40.7C74.3 38.8 75 36.9 76.7 37.2C78.2 37.5 78 39.4 77.9 40.1C78.8 40.5 81.7 32.1 78.1 26.2C74.6 20.2 66.5 20.1 61.7 22.8C56.9 25.5 55.8 29.3 55.7 30.5Z" fill="#825012"/>
<path d="M54.7 31.1C54.7 31.1 49.2 35.8 54.9 38.6C60.6 41.4 72.7 37 72.7 37L80.2 35.4L80.7 34.3C80.7 34.3 84.4 34.7 85.2 32.9C86.1 31.1 79.8 23.2 72 20.8C64.2 18.4 54.4 15.6 53 18.9C51.6 22.2 55.8 26.9 55.8 26.9L54.7 31.1Z" fill="#1B3727"/>
<path d="M80.7 34.3L79.8 36.3C79.8 36.3 69.1 37.8 61.8 35.3C55.2 33 54.7 31 54.7 31L55.7 26.7C55.7 26.7 57.3 29.6 64.6 31.9C71.1 34.1 80.7 34.3 80.7 34.3Z" fill="black"/>
<path d="M62.3 58.6C62.2 59.3 62.1 59.9 62.1 60.3C62 62.1 61.6 66.8 61.6 66.8L65.2 59.6L62.3 58.6Z" fill="#E5E5E5"/>
<path d="M88.7 58C88.7 58 89.5 56.5 90.4 55.8C91.2 55.2 92.1 55 92.1 55C92.1 55 83.8 52.7 82.7 53.9C81.7 55 82.2 56.3 84 56.8C85.9 57.2 88.7 58 88.7 58ZM93.4 74.6L93.3 71.5L95.2 70.8L95.3 68.9L97.1 68.7L97.6 66.9L100.4 67.2C100.4 67.2 100.3 68.6 100.8 69.1C101.5 69.9 103.3 70.4 103.8 71.9C104.3 73.5 102.5 77.7 102.5 77.7C102.5 77.7 98.1 79.5 96.7 78.5C95.4 77.6 96 75.9 95.2 75C94.5 74.3 93.4 74.6 93.4 74.6Z" fill="#FFFFB3"/>
<path d="M97.6 72.8L97.4 71.3L98.8 71.5L99.6 70.2L100.2 71.6L101.4 71.4L101.3 72.8L102.4 73.6L100.9 74.3L100.8 76L99.6 75.8L98.8 77.1L97.9 75.9L96.7 76.3L97.1 74.6L96 73.6L97.6 72.8Z" fill="#FDD835"/>
<path d="M65.2 74.2L81.4 79.5L80.2 83.2H70.6L64.2 78L65.2 74.2ZM57.5 71.2L56.8 74L51.5 74.8L49.5 70.5L50.2 66.8L57.5 71.2Z" fill="#CFCFCF"/>
<path d="M53.1 101.6L55.8 105.7C55.8 105.7 53.9 119.1 51.3 120.4C48.7 121.7 50.8 108.1 50.8 108.1L53.1 101.6Z" fill="#262626"/>
<path d="M88.6 54.7L89.5 55.9L87.6 56.8L87.9 56.1L88.7 55.8L88.4 55.3L88.6 54.7Z" fill="#FDD835"/>
</svg>
