<svg width="160" height="241" viewBox="0 0 60 241" fill="none" xmlns="http://www.w3.org/2000/svg">
<path d="M24.8 82.7C24.8 82.7 21.6 93.5 18.9 101.8C16.2 110.1 14.5 115.6 13.6 117.7C12.7 119.8 12.3 123.4 12.8 125C13.3 126.6 15.1 130 15.8 130.7C17.5 132.3 20.2 131.9 20.6 131.5C21 131 21 129.3 20.3 128.6C19.6 127.9 17.7 125.6 18.9 122.6C20.1 119.6 19.9 118.4 19.9 116.6C19.9 115.1 19.4 114.9 20.6 112.5C21.8 110 27.5 98 28.1 96.3C28.6 94.6 24.8 82.7 24.8 82.7Z" fill="#FBD7C7"/>
<path d="M23 91.9C21.5 83.6 22 88 20.9 84.1C20.9 84 20.1 83.8 20.2 84.1C20.8 87.5 20.5 92.1 18.7 96.8C16.6 102.5 12.7 112.8 13.2 113.2C14.6 114.8 21.6 115.2 21.6 115.2L22.4 112.7L23.8 104.3C23.8 104.1 24.5 100.2 23 91.9Z" fill="#D856FF"/>
<path opacity="0.15" d="M23 91.9C21.5 83.6 22 88 20.9 84.1C20.9 84 20.1 83.8 20.2 84.1C20.8 87.5 20.5 92.1 18.7 96.8C16.6 102.5 12.7 112.8 13.2 113.2C14.6 114.8 21.6 115.2 21.6 115.2L22.4 112.7L23.8 104.3C23.8 104.1 24.5 100.2 23 91.9Z" fill="#C4C4C4"/>
<path opacity="0.2" d="M20.7 206.7C8.9 214.3 8.3 221.1 20.7 227.7C34.2 234.9 43.1 231 53.6 225C64.1 219 65.4 211.6 50 205.4C37.5 200.5 29.6 201 20.7 206.7Z" fill="black"/>
<path d="M38.7 55.2C38.7 55.2 29.6 51.2 26.4 55.5C23.2 59.8 24.7 66.5 24.7 66.5C24.7 66.5 19.3 72.6 19.3 75.9C19.3 79.2 24.4 82.4 24.4 82.4C24.4 82.4 24.3 99.9 23.4 106.4C22.5 112.9 20.4 128 21 138.6C21.6 149.2 22.6 163.6 22.9 167.8C23.2 171.9 25.1 177.8 25.9 182.6C26.8 187.4 30 195.8 26.8 202.2C23.6 208.6 20.7 211.5 19.4 212.7C18.1 213.9 19.6 217.9 22.4 217.2C25.2 216.5 29.6 210.1 32.3 209.1C35 208.1 39.5 205.1 38.3 201.4C37.1 197.8 36.6 199.2 36.3 196.1C36 193 38.5 179.4 37.6 173.3C36.7 167.2 34.4 165.5 34 164.5C33.6 163.4 39.7 135 39.7 135C39.7 135 40.9 162.3 40.8 165.2C40.7 168.1 42.9 182.9 43.5 189.8C44.2 196.8 44.5 208.6 41.5 212.7C38.6 216.8 33.5 223 35.5 224.4C37.5 225.8 43.8 227.1 45.3 223.5C46.8 219.9 50.6 212.4 52 210.4C53.4 208.4 53.9 207.3 53 205.4C52.1 203.5 51.5 200.4 52.5 195.1C53.5 189.8 56.6 180.4 55.8 175.4C55 170.4 52.6 167.3 52.9 163.7C53.2 160.2 61 138.9 59.5 124C58 109.1 50.5 106.5 49.2 100.5C47.9 94.5 52.2 86.6 54.4 82.3C56.6 78.1 59.7 70.7 57 68.1C54.3 65.4 51.1 63.7 49.9 61.7C48.7 59.7 47.4 53.5 47.4 53.5L38.7 55.2Z" fill="#FBD7C7"/>
<path d="M21.3 210.8C21.3 210.8 16.4 212.5 15.4 214.7C14.6 216.5 14.9 218.6 16.6 219.7C18.3 220.8 21.8 221 24.8 219.3C27.7 217.6 31.6 210.9 32.3 210.6C33 210.3 32.5 214.3 32.5 214.3L34.6 215.4L36.9 214.5C36.9 214.5 36.7 210 37.6 208.5C38.5 206.9 40.2 204.6 39.6 201.6C38.9 198.6 37 198.3 37 198.3C37 198.3 37 201.8 33 205.6C29.2 209.2 27.1 215.2 23.8 214.9C19.3 214.2 21.3 210.8 21.3 210.8ZM38.2 217.6C38.2 217.6 33.6 221.1 33.3 223.3C33 225.5 33.1 227 36.2 228C39.3 229 43.3 227.8 45.2 226.2C47 224.6 49.6 220.4 49.6 220.4L51.6 221.5L53.9 220.4C53.9 220.4 53.6 217.7 54.3 215.3C55 212.9 55.7 210.9 55.7 207.9C55.7 204.9 52.9 204.6 52.9 204.6C52.9 204.6 54.6 206.2 52.1 209.7C49.6 213.2 47.7 221 44 221.2C37 221.7 38.2 217.6 38.2 217.6Z" fill="#656565"/>
<path d="M22.3 110.4C22.3 110.4 19.9 124.2 19.9 134.1C19.9 144 21.8 169 21.8 169C21.8 169 35.1 172.6 43.3 171.8C53.1 170.9 56.5 169.6 56.5 169.6C56.5 169.6 60.8 146.5 61.2 137.3C61.8 124 58.3 110.5 55.5 107C52.7 103.5 22.3 110.4 22.3 110.4Z" fill="#262626"/>
<path d="M45.2 77C45.2 77 52.2 85.7 55.7 90.2C59.2 94.7 62.8 99.5 62.8 99.5C62.8 99.5 56.9 102.7 53.1 106.9C49.3 111.1 46.4 114.5 45.4 114.7C44.4 114.9 40.1 114.6 36.6 116.5C33.6 118.1 32.5 119.4 32.2 121.5C31.9 123.6 32.6 125.3 33.9 126.3C35.2 127.3 37 126.9 37.6 126.6C39.1 125.8 39.4 124.1 40.8 123.3C42.6 122.3 45.3 122.2 47.1 121C48.8 119.7 67.8 107.6 70.1 105C72.4 102.4 73.5 99.4 70.8 95.6C68.1 91.7 59.7 78 57.5 73.6C55.3 69.2 52.6 64.8 48 64.8C43.4 64.8 40 71.8 45.2 77Z" fill="#FBD7C7"/>
<path d="M73 99.3C71.5 95.7 64.6 80.6 63 77.2C61.4 73.8 59.6 68.8 56.7 66C53.9 63.3 50.2 60.6 48.9 59.5C47.6 58.4 35.5 54.2 35.5 54.2C31.6 53.2 26.9 52.2 24.5 56.7C22.1 61.2 23.5 65 23.5 65C23.5 65 18.1 70.9 18 74.9C17.9 78.6 20.5 82.8 21.9 93.1C23.1 101.4 22.1 111.2 22.1 111.2H22.2C22.7 111.3 28.9 113.1 34.4 113C41.6 112.8 44.5 110.7 44.5 110.7C44.5 110.7 43.1 114.5 45.4 118.4C47.7 122.2 50.6 122.2 51.4 121.7C52.2 121.2 65.9 111.5 69.1 108.7C72.3 105.9 74.5 103 73 99.3ZM56.8 102.2C54.2 103.8 51.9 105.2 51.9 105.2C51.9 105.2 50.3 99.7 50.1 95.8C49.9 91.9 52.7 86.9 52.7 86.9C52.7 86.9 55.7 90.7 56.8 92.3C58.5 94.7 61.1 99.6 61.1 99.6C61.1 99.6 58.8 100.9 56.8 102.2Z" fill="#D856FF"/>
<path d="M33.9 54.4C33.9 54.4 26.8 65.6 31.8 68.1C36.8 70.7 47.4 62.2 47.4 62.2L39.6 53.5L33.9 54.4Z" fill="#FBD7C7"/>
<path d="M31.1 58.8C31.1 58.8 30.1 65.3 33.2 66.7C36.2 68.1 42.4 66.3 42.4 66.3L22.9 79.5C22.9 79.5 23 70.4 24.8 67.2C26.6 64.1 31.1 58.8 31.1 58.8Z" fill="white"/>
<path d="M36.3 54.1C36.3 54.1 28.1 62.7 26.2 67.8C24.3 72.9 24.2 78.6 25.2 88.9C26.1 97.5 26.2 112.2 26.2 112.2L24.8 112C24.8 112 25.2 91.7 21.8 78.4C20.3 72.3 21.1 65.7 21.1 65.7L25.4 61.5L29.6 53.1L36.3 54.1Z" fill="#262626"/>
<path d="M36.1 55.4C36.1 55.4 31.8 56.1 31.2 54.5C30.5 52.8 26.8 39 33.6 30.4C40.4 21.8 54.1 27.3 54.1 36.4C54.1 44.5 50.9 46.9 49.4 50.9C48.5 53.4 47.8 56.7 49.3 59.3C50.8 62 52 63.3 52 63.3C52 63.3 44.4 67.9 38.7 66.5C33 65.1 38.5 62.3 37.7 59.9C36.9 57.5 36.1 55.4 36.1 55.4Z" fill="#FBD7C7"/>
<path d="M31.4 36.7C31.4 36.7 30.8 43.4 35.1 47.4C35.3 44.2 36 42.8 36 42.8C36 42.8 37.7 48.6 40.2 48.6C39.2 45.7 39.5 43.9 39.5 43.9C39.5 43.9 40.5 45.6 41.6 45.4C41.4 43.6 42.1 42.6 42.1 42.6C42.1 42.6 43.1 47.4 43.1 53.5C47.9 51.3 50 44.1 50 44.1C50 44.1 50 49.5 48.1 54.4C50.8 54.7 59.1 47.6 58.5 36.5C58 27.9 49.5 24.8 49.5 24.8L51.8 24.5C51.8 24.5 44.2 20.5 36.4 24.4C27.5 28.9 28.4 41.4 28.9 41.6C30 37.5 31.4 36.7 31.4 36.7Z" fill="#825012"/>
<path d="M49.9 60.4C49.9 60.4 39.6 66.7 35.1 69.8C30.6 72.9 22.6 79.8 22.6 79.8L41.4 71.9L44.3 66.9L48.3 66.3L54.4 63.2L49.9 60.4Z" fill="#262626"/>
</svg>
